# xmcd CD database file
#
# Track frame offsets:
#	150
#	14298
#	29982
#	40419
#	56998
#	89076
#	100759
#	116069
#	128452
#	138129
#	151309
#	169677
#
# Disc length: 2517 seconds
#
# Revision: 0
# Processed by: cddbd v1.5.1PL2 Copyright (c) Steve Scherf et al.
# Submitted via: CDex 1.51
#
DISCID=a209d30c
DTITLE=alan jackson - under influence
DYEAR=1999
DGENRE=Country
TTITLE0=Under The Influence - Pop A Top
TTITLE1=Under The Influence - Farewell Party
TTITLE2=Alan Jackson - Kiss An Angel Good Morning
TTITLE3=Alan Jackson - Right In The Palm Of Your Hand
TTITLE4=Alan Jackson - The Blues Man (A Tribute To Ha
TTITLE5=Under The Influence - Revenooer Man
TTITLE6=Under The Influence - My Own Kind Of Hat
TTITLE7=Under The Influence - She Just Started Liking Cheati
TTITLE8=09 - Alan Jackson - The Way I Am
TTITLE9=Under The Influence - It Must Be Love
TTITLE10=11 - Alan Jackson - Once You've Had The Best
TTITLE11=Under The Influence - Margaritaville (With Jimmy Buf
EXTD=YEAR: 1999
EXTT0=
EXTT1=
EXTT2=
EXTT3=
EXTT4=
EXTT5=
EXTT6=
EXTT7=
EXTT8=
EXTT9=
EXTT10=
EXTT11=
PLAYORDER=
